<?xml version="1.0" standalone="no"?>
<!DOCTYPE svg PUBLIC "-//W3C//DTD SVG 20010904//EN"
 "http://www.w3.org/TR/2001/REC-SVG-20010904/DTD/svg10.dtd">
<svg version="1.0" xmlns="http://www.w3.org/2000/svg"
 width="980.000000pt" height="922.000000pt" viewBox="0 0 980.000000 922.000000"
 preserveAspectRatio="xMidYMid meet">

<g transform="translate(0.000000,922.000000) scale(0.100000,-0.100000)"
fill="#000000" stroke="none">
<path d="M3692 9189 c-161 -64 -239 -265 -164 -424 55 -115 155 -178 282 -179
89 -1 164 29 225 89 60 61 90 136 89 225 0 122 -61 223 -168 277 -71 37 -189
42 -264 12z m188 -157 c19 -9 45 -33 58 -52 20 -29 23 -44 20 -93 -4 -51 -9
-63 -41 -94 -31 -32 -43 -37 -94 -41 -49 -3 -64 0 -92 20 -96 65 -92 187 9
256 40 27 92 29 140 4z"/>
<path d="M7345 9159 c-228 -34 -413 -174 -510 -384 -46 -99 -60 -165 -59 -280
1 -378 316 -673 698 -652 340 18 607 286 623 627 6 122 -13 215 -68 328 -77
160 -252 302 -424 345 -81 21 -188 27 -260 16z m65 -212 c0 -90 -2 -166 -5
-168 -7 -7 -150 8 -206 21 -27 7 -49 17 -49 23 0 24 59 134 98 183 35 45 123
104 154 104 4 0 8 -73 8 -163z m123 136 c46 -23 113 -100 145 -166 50 -104 50
-103 -6 -117 -57 -13 -200 -28 -207 -21 -3 2 -5 78 -5 168 l0 164 23 -7 c12
-3 35 -13 50 -21z m224 -65 c29 -18 74 -53 99 -79 l47 -47 -61 -31 c-34 -17
-63 -31 -65 -31 -3 0 -12 21 -22 48 -22 59 -49 105 -93 160 l-34 43 38 -16
c22 -9 63 -30 91 -47z m-564 5 c-20 -27 -51 -81 -69 -121 l-34 -72 -62 31 -63
32 62 57 c58 53 163 119 190 120 7 0 -4 -21 -24 -47z m-180 -212 c46 -23 66
-38 63 -47 -7 -18 -23 -121 -31 -196 l-6 -58 -105 0 -104 0 0 43 c0 23 7 67
15 97 16 62 83 203 93 198 4 -2 38 -19 75 -37z m962 -31 c41 -81 65 -166 65
-227 l0 -43 -110 0 -110 0 0 63 c0 34 -7 93 -15 131 -8 38 -13 71 -12 73 6 5
132 70 139 72 4 0 24 -31 43 -69z m-715 -46 c41 -7 92 -13 113 -14 l37 0 0
-105 0 -105 -155 0 -155 0 0 43 c0 42 16 156 26 190 5 15 12 17 32 12 15 -4
61 -13 102 -21z m489 -21 c5 -27 13 -83 17 -125 l7 -78 -157 0 -156 0 0 104 0
103 73 7 c39 4 97 13 127 20 79 20 77 20 89 -31z m-697 -342 c4 -40 12 -89 18
-109 5 -20 8 -37 7 -37 -14 -10 -132 -65 -138 -65 -24 0 -91 158 -105 245 l-6
46 108 -3 109 -3 7 -74z m356 -3 l-3 -83 -80 -8 c-44 -4 -105 -14 -135 -22
-30 -8 -56 -12 -59 -10 -7 8 -30 137 -31 173 l0 32 155 0 156 0 -3 -82z m362
60 c-1 -27 -27 -178 -32 -184 -2 -2 -28 3 -58 11 -30 8 -91 18 -135 22 l-80 8
-3 83 -3 82 156 0 c154 0 155 0 155 -22z m270 4 c0 -38 -32 -140 -65 -209
l-36 -72 -72 36 c-39 20 -73 37 -74 38 -2 1 4 36 12 79 8 43 15 93 15 112 l0
34 110 0 c99 0 110 -2 110 -18z m-630 -367 c0 -145 -2 -165 -16 -165 -59 0
-164 99 -212 202 -18 36 -32 71 -32 77 0 17 135 46 228 50 l32 1 0 -165z m243
141 c32 -8 61 -16 64 -19 3 -4 -10 -40 -30 -81 -40 -84 -103 -158 -159 -187
-69 -35 -68 -38 -68 147 l0 167 68 -7 c37 -4 94 -13 125 -20z m-553 -48 c0
-22 66 -145 100 -188 17 -22 29 -40 25 -40 -4 0 -37 16 -75 35 -75 40 -184
131 -174 147 6 10 102 58 117 58 4 0 7 -6 7 -12z m752 -19 c20 -10 39 -23 42
-28 10 -15 -101 -107 -176 -146 -38 -20 -71 -35 -74 -32 -2 2 10 21 27 43 17
21 47 74 67 116 41 85 39 85 114 47z"/>
<path d="M2840 8974 c-85 -7 -162 -15 -170 -16 -8 -2 130 -115 308 -251 177
-137 324 -251 326 -255 2 -4 -97 -153 -220 -331 -124 -178 -222 -326 -220
-329 3 -3 83 8 177 23 l171 28 38 51 c20 28 126 178 233 333 l196 283 -202
148 c-416 306 -452 332 -467 331 -8 -1 -85 -8 -170 -15z m659 -419 c72 -37 48
-145 -33 -145 -87 0 -113 108 -36 147 32 16 35 16 69 -2z"/>
<path d="M3850 8491 c-94 -31 -186 -116 -214 -198 -26 -76 -21 -167 13 -238
116 -242 445 -246 563 -8 29 59 33 77 32 143 -1 173 -123 299 -299 306 -38 2
-81 0 -95 -5z m146 -170 c54 -25 84 -73 84 -138 0 -67 -30 -111 -92 -137 -41
-17 -53 -18 -87 -7 -117 35 -157 158 -79 246 47 54 107 66 174 36z"/>
<path d="M4745 7373 c-1365 -1103 -2605 -2106 -2621 -2118 -10 -8 11 -40 87
-135 56 -69 102 -126 102 -127 1 -1 126 99 277 221 151 123 278 221 282 220 3
-2 153 -186 333 -409 180 -223 331 -405 337 -405 5 0 32 10 59 21 27 12 52 19
55 17 4 -5 -377 -2030 -391 -2078 -4 -12 -332 -63 -1594 -250 -875 -129 -1585
-238 -1578 -241 30 -17 4206 -1513 4233 -1517 33 -4 3785 497 3795 507 12 12
1169 4925 1162 4931 -5 4 -780 83 -1723 175 -943 92 -1716 169 -1718 170 -2 2
35 61 82 131 51 76 82 132 77 138 -4 6 -151 188 -325 404 -174 216 -319 399
-321 405 -6 15 251 221 264 212 6 -3 95 -110 198 -238 103 -128 206 -255 230
-283 l43 -51 -65 -52 c-36 -29 -65 -56 -65 -60 0 -4 88 -116 196 -249 136
-170 199 -240 207 -234 45 35 385 308 395 317 11 10 -21 56 -178 251 -106 132
-196 243 -200 248 -5 5 -28 -8 -53 -28 l-44 -36 -224 277 c-123 152 -229 284
-236 293 -10 14 0 26 68 80 43 35 79 66 79 69 0 8 -154 199 -183 228 l-22 21
-1020 -825z m2438 -1537 c863 -102 1571 -186 1573 -188 3 -4 -975 -4148 -980
-4155 -2 -3 -4209 1187 -4214 1192 -3 3 393 2061 403 2096 3 8 47 32 98 53 50
21 308 127 572 237 l480 200 249 374 c137 206 250 375 250 375 1 0 707 -83
1569 -184z m-3881 -4398 c318 -106 578 -195 578 -198 0 -3 -136 -22 -302 -42
l-303 -37 -517 197 c-284 108 -514 199 -511 202 2 3 109 19 236 36 128 18 234
32 237 33 3 0 265 -86 582 -191z"/>
<path d="M6370 5207 c0 -8 90 -410 92 -412 2 -2 48 -6 103 -11 l100 -9 41
-185 c22 -102 43 -199 47 -215 6 -30 4 -32 -84 -79 -49 -26 -89 -51 -89 -55 0
-14 90 -414 94 -418 4 -4 363 220 1073 669 130 82 170 112 167 126 -2 9 -22
100 -44 201 -22 101 -41 185 -42 186 -3 3 -1438 205 -1451 205 -4 0 -7 -1 -7
-3z m1042 -508 c-10 -10 -376 -208 -379 -205 -4 4 -53 227 -53 240 0 8 62 6
220 -8 121 -11 217 -23 212 -27z"/>
<path d="M4752 3188 l3 -553 310 -3 c179 -1 340 2 380 8 102 15 205 68 255
132 108 135 87 346 -43 435 -26 17 -52 33 -59 36 -9 3 -5 11 12 23 75 55 100
106 100 201 0 120 -48 191 -166 245 -48 22 -58 23 -422 26 l-372 3 2 -553z
m580 282 c41 -12 58 -34 58 -75 0 -67 -39 -85 -186 -85 l-104 0 0 85 0 85 98
0 c53 0 114 -5 134 -10z m61 -390 c32 -26 44 -79 27 -121 -21 -49 -53 -59
-200 -59 l-130 0 0 100 0 100 139 0 c124 0 141 -2 164 -20z"/>
<path d="M8945 7730 c-77 -31 -119 -53 -117 -62 1 -7 19 -53 38 -102 19 -49
31 -92 27 -96 -4 -4 -190 -81 -413 -170 -223 -89 -413 -166 -422 -171 -9 -5
-38 -46 -64 -92 l-47 -83 -124 -49 c-67 -26 -123 -53 -123 -59 0 -29 121 -311
132 -308 7 2 65 23 128 48 l115 46 97 -27 97 -27 427 172 c234 94 427 170 428
168 2 -3 42 -102 67 -165 8 -22 9 -21 121 24 62 25 121 49 130 54 15 8 13 18
-22 104 l-39 96 26 10 c91 34 379 153 385 158 5 5 -185 496 -205 529 -5 6 -82
-20 -215 -73 -114 -46 -208 -82 -209 -82 -1 1 -19 47 -41 102 -22 54 -43 100
-48 102 -5 1 -63 -20 -129 -47z m69 -536 c43 -107 77 -196 75 -198 -2 -2 -189
-78 -414 -168 l-411 -165 -96 28 -97 27 -93 -39 c-51 -21 -98 -39 -104 -39
-15 0 -78 160 -68 170 5 5 51 25 102 45 l92 37 51 87 50 86 402 162 c221 88
409 162 418 162 11 1 37 -54 93 -195z"/>
<path d="M1415 7670 c-116 -17 -250 -90 -366 -198 -136 -127 -207 -258 -230
-423 -13 -96 2 -209 41 -312 53 -140 228 -345 364 -426 103 -62 178 -83 306
-89 130 -5 201 8 307 58 340 158 503 521 372 828 -20 46 -80 142 -89 142 -3 0
-53 -42 -111 -92 -58 -51 -127 -112 -153 -135 l-48 -42 26 -65 c15 -37 26 -84
26 -111 0 -111 -102 -207 -220 -209 -182 -2 -431 259 -431 453 -1 70 11 99 58
152 75 83 168 100 267 50 l56 -28 148 130 c81 72 148 135 149 141 3 13 -71 71
-137 109 -97 56 -232 83 -335 67z"/>
<path d="M9537 5863 c-2 -5 -264 -1119 -582 -2478 -318 -1359 -581 -2473 -584
-2477 -4 -4 -916 -140 -2028 -303 l-2021 -295 -2144 784 c-1179 431 -2151 787
-2160 791 -17 7 -18 -3 -18 -116 l0 -124 2138 -818 c1175 -449 2148 -817 2162
-817 48 0 4282 678 4290 686 7 9 1213 4996 1208 4999 -2 1 -55 37 -118 81
-142 99 -138 96 -143 87z"/>
<path d="M1290 4700 c-280 -69 -491 -273 -582 -560 -20 -65 -23 -95 -23 -225
1 -143 2 -154 33 -245 45 -130 101 -220 196 -316 94 -94 192 -155 314 -197 75
-25 106 -30 222 -35 162 -5 255 13 387 78 44 22 84 40 88 40 3 0 34 -21 67
-47 l61 -47 26 34 c64 83 19 103 382 -167 178 -132 329 -243 335 -246 7 -4 51
45 110 124 76 102 95 133 83 139 -8 5 -77 56 -154 113 -77 57 -222 165 -322
239 l-182 135 29 39 c16 22 30 42 30 46 0 3 -30 28 -66 55 -61 45 -65 50 -59
78 60 289 -21 562 -227 762 -110 107 -259 186 -402 212 -92 17 -259 12 -346
-9z m342 -339 c214 -73 345 -290 311 -511 -39 -252 -278 -431 -524 -393 -258
40 -441 286 -399 536 32 186 187 348 371 387 62 13 174 4 241 -19z"/>
</g>
</svg>
